<svg width="40" height="40" viewBox="0 0 40 40" fill="none" xmlns="http://www.w3.org/2000/svg">
<path fill-rule="evenodd" clip-rule="evenodd" d="M27.8283 5L26.6667 5L7.33333 5C5.44771 5 4.5049 5 3.91911 5.58579C3.33333 6.17157 3.33333 7.11438 3.33333 9V35L8.33333 33.3333L13.3333 35L18.3333 33.3333L23.1686 34.9451L23.3333 18.3333L23.3333 9.5C23.3333 7.0164 25.3453 5.00272 27.8283 5ZM36.3333 18.3333V9.5C36.3333 8.11929 35.214 7 33.8333 7H27.8333C26.4526 7 25.3333 8.11929 25.3333 9.5V18.3333L36.3333 18.3333ZM7.33333 11.6667C7.33333 11.1144 7.78104 10.6667 8.33333 10.6667H18.3333C18.8856 10.6667 19.3333 11.1144 19.3333 11.6667C19.3333 12.219 18.8856 12.6667 18.3333 12.6667H8.33333C7.78104 12.6667 7.33333 12.219 7.33333 11.6667ZM7.33333 18.3333C7.33333 17.781 7.78104 17.3333 8.33333 17.3333H11.6667C12.2189 17.3333 12.6667 17.781 12.6667 18.3333C12.6667 18.8856 12.2189 19.3333 11.6667 19.3333H8.33333C7.78104 19.3333 7.33333 18.8856 7.33333 18.3333ZM7.33333 25C7.33333 24.4477 7.78104 24 8.33333 24H15C15.5523 24 16 24.4477 16 25C16 25.5523 15.5523 26 15 26H8.33333C7.78104 26 7.33333 25.5523 7.33333 25Z" fill="white"/>
</svg>
