<svg width="40" height="40" viewBox="0 0 40 40" fill="none" xmlns="http://www.w3.org/2000/svg">
<path fill-rule="evenodd" clip-rule="evenodd" d="M35 20C35 28.2843 28.2843 35 20 35C11.7157 35 5 28.2843 5 20C5 11.7157 11.7157 5 20 5C28.2843 5 35 11.7157 35 20ZM12.6262 27.3738C12.2357 26.9832 12.2357 26.3501 12.6262 25.9596L18.5858 20L12.6262 14.0404C12.2357 13.6499 12.2357 13.0167 12.6262 12.6262C13.0167 12.2357 13.6499 12.2357 14.0404 12.6262L20 18.5858L25.9596 12.6262C26.3501 12.2357 26.9832 12.2357 27.3738 12.6262C27.7643 13.0167 27.7643 13.6499 27.3738 14.0404L21.4142 20L27.3738 25.9596C27.7643 26.3501 27.7643 26.9832 27.3738 27.3738C26.9832 27.7643 26.3501 27.7643 25.9596 27.3738L20 21.4142L14.0404 27.3738C13.6499 27.7643 13.0168 27.7643 12.6262 27.3738Z" fill="#FFFEFE"/>
</svg>
