<svg width="31" height="31" viewBox="0 0 31 31" fill="none" xmlns="http://www.w3.org/2000/svg">
<path fill-rule="evenodd" clip-rule="evenodd" d="M30.5 15.4526C30.5 23.7368 23.7843 30.4526 15.5 30.4526C7.21573 30.4526 0.5 23.7368 0.5 15.4526C0.5 7.1683 7.21573 0.452576 15.5 0.452576C23.7843 0.452576 30.5 7.1683 30.5 15.4526ZM8.12623 22.8263C7.7357 22.4358 7.7357 21.8027 8.12623 21.4121L14.0858 15.4526L8.12623 9.49301C7.7357 9.10249 7.7357 8.46933 8.12623 8.0788C8.51675 7.68828 9.14991 7.68828 9.54044 8.0788L15.5 14.0384L21.4596 8.0788C21.8501 7.68828 22.4832 7.68828 22.8738 8.0788C23.2643 8.46933 23.2643 9.10249 22.8738 9.49301L16.9142 15.4526L22.8738 21.4121C23.2643 21.8027 23.2643 22.4358 22.8738 22.8263C22.4832 23.2169 21.8501 23.2169 21.4596 22.8263L15.5 16.8668L9.54044 22.8263C9.14992 23.2169 8.51675 23.2169 8.12623 22.8263Z" fill="white"/>
</svg>
