<svg width="35" height="35" viewBox="0 0 35 35" fill="none" xmlns="http://www.w3.org/2000/svg">
<rect width="35" height="35" rx="10" fill="#253555"/>
<path fill-rule="evenodd" clip-rule="evenodd" d="M27.3634 11.4545H8.27246V14.6363C8.38501 14.6363 8.44128 14.6363 8.48884 14.6386C9.5186 14.6877 10.3424 15.5114 10.3914 16.5412C10.3937 16.5887 10.3937 16.645 10.3937 16.7576V21.3636C10.3937 24.192 10.3937 25.6063 11.2724 26.4849C12.151 27.3636 13.5652 27.3636 16.3937 27.3636H19.2422C22.0706 27.3636 23.4848 27.3636 24.3635 26.4849C25.2422 25.6063 25.2422 24.192 25.2422 21.3636V16.7576C25.2422 16.645 25.2422 16.5887 25.2444 16.5412C25.2935 15.5114 26.1172 14.6877 27.147 14.6386C27.1945 14.6363 27.2508 14.6363 27.3634 14.6363V11.4545ZM16.1664 16.7576C16.1664 16.2053 15.7187 15.7576 15.1664 15.7576C14.6141 15.7576 14.1664 16.2053 14.1664 16.7576V22.0606C14.1664 22.6129 14.6141 23.0606 15.1664 23.0606C15.7187 23.0606 16.1664 22.6129 16.1664 22.0606V16.7576ZM21.4694 16.7576C21.4694 16.2053 21.0217 15.7576 20.4694 15.7576C19.9171 15.7576 19.4694 16.2053 19.4694 16.7576V22.0606C19.4694 22.6129 19.9171 23.0606 20.4694 23.0606C21.0217 23.0606 21.4694 22.6129 21.4694 22.0606V16.7576Z" fill="white"/>
<path d="M15.7693 8.66576C15.8902 8.553 16.1565 8.45336 16.5269 8.38229C16.8974 8.31122 17.3513 8.27271 17.8182 8.27271C18.2852 8.27271 18.7391 8.31122 19.1096 8.38229C19.48 8.45336 19.7463 8.553 19.8672 8.66576" stroke="white" stroke-width="2" stroke-linecap="round"/>
</svg>
