<svg width="35" height="35" viewBox="0 0 35 35" fill="none" xmlns="http://www.w3.org/2000/svg">
<rect width="35" height="35" rx="10" fill="#253555"/>
<path fill-rule="evenodd" clip-rule="evenodd" d="M22.8967 16.4924L24.9858 14.1986L24.9858 14.1986C25.6091 13.5141 25.9208 13.1719 26.0555 12.7905C26.2078 12.3594 26.2078 11.8892 26.0555 11.4581C25.9208 11.0767 25.6091 10.7345 24.9858 10.0501L24.9858 10.0501L24.9858 10.0501C24.2479 9.23983 23.8789 8.83471 23.4547 8.66401C22.9757 8.47129 22.4407 8.47129 21.9616 8.66401C21.5374 8.8347 21.1684 9.23982 20.4306 10.0501L20.4305 10.0501L18.7077 11.9419C19.7056 13.7768 21.1442 15.3424 22.8967 16.4924ZM21.5354 17.9872C19.816 16.8049 18.3709 15.2712 17.2937 13.4944L9.93883 21.5704C9.5552 21.9916 9.36339 22.2022 9.23874 22.4542C9.11409 22.7061 9.06304 22.9864 8.96095 23.5469L8.25945 27.3983C8.19857 27.7325 8.16814 27.8996 8.26452 27.9926C8.36091 28.0855 8.52681 28.0491 8.8586 27.9762L12.0905 27.2665C12.7068 27.1311 13.015 27.0635 13.2837 26.9081C13.5525 26.7528 13.7649 26.5195 14.1898 26.0529L21.5354 17.9872Z" fill="#FFFEFE"/>
</svg>
