<svg width="40" height="40" viewBox="0 0 40 40" fill="none" xmlns="http://www.w3.org/2000/svg">
<path fill-rule="evenodd" clip-rule="evenodd" d="M21.4819 11.8512L25.5047 7.82843C26.838 6.4951 27.5047 5.82843 28.3331 5.82843C29.1615 5.82843 29.8282 6.4951 31.1615 7.82843L32.1713 8.83824C33.5047 10.1716 34.1713 10.8382 34.1713 11.6667C34.1713 12.4951 33.5047 13.1618 32.1713 14.4951L28.1848 18.4816C25.4165 16.8714 23.1121 14.5842 21.4819 11.8512ZM20.0276 13.3055L7.52282 25.8103C7.09776 26.2354 6.88523 26.4479 6.74549 26.709C6.60576 26.9701 6.54681 27.2648 6.42892 27.8543L5.14686 34.2646C5.08034 34.5972 5.04708 34.7635 5.14168 34.8581C5.23629 34.9527 5.40258 34.9194 5.73517 34.8529L5.73519 34.8529L5.73521 34.8529L12.1455 33.5709C12.735 33.453 13.0297 33.394 13.2908 33.2543C13.5519 33.1145 13.7644 32.902 14.1895 32.477L26.7269 19.9396C24.0092 18.2653 21.7192 15.9913 20.0276 13.3055Z" fill="#FFFEFE"/>
</svg>
