<svg width="37" height="40" viewBox="0 0 37 40" fill="none" xmlns="http://www.w3.org/2000/svg">
<g clip-path="url(#clip0_1_211)">
<path d="M36.0467 20.4082C36.0467 9.5879 27.9774 0.816345 18.0233 0.816345C8.06932 0.816345 0 9.5879 0 20.4082C0 30.1869 6.59084 38.2922 15.2072 39.762V26.0714H10.631V20.4082H15.2072V16.0919C15.2072 11.1817 17.898 8.46941 22.0149 8.46941C23.9862 8.46941 26.0494 8.85206 26.0494 8.85206V13.6735H23.7767C21.5379 13.6735 20.8395 15.1838 20.8395 16.7347V20.4082H25.8381L25.0391 26.0714H20.8395V39.762C29.4558 38.2922 36.0467 30.1869 36.0467 20.4082Z" fill="white"/>
</g>
<defs>
<clipPath id="clip0_1_211">
<rect width="36.0467" height="39.1837" fill="white" transform="translate(0 0.816345)"/>
</clipPath>
</defs>
</svg>
