<svg width="37" height="40" viewBox="0 0 37 40" fill="none" xmlns="http://www.w3.org/2000/svg">
<g clip-path="url(#clip0_1_209)">
<path fill-rule="evenodd" clip-rule="evenodd" d="M18.405 -3.18365C5.12263 -3.18365 -5.61487 7.633 -5.61487 21.0147C-5.61487 31.7114 1.26502 40.7659 10.8092 43.9706C12.0025 44.2115 12.4396 43.4499 12.4396 42.8093C12.4396 42.2483 12.4003 40.3254 12.4003 38.3218C5.71853 39.7644 4.32711 35.4372 4.32711 35.4372C3.25331 32.6328 1.66228 31.912 1.66228 31.912C-0.524649 30.4296 1.82158 30.4296 1.82158 30.4296C4.24746 30.5899 5.52039 32.9135 5.52039 32.9135C7.66749 36.599 11.1273 35.5577 12.5193 34.9165C12.7179 33.354 13.3546 32.2724 14.0306 31.6715C8.70147 31.1105 3.09451 29.0274 3.09451 19.7324C3.09451 17.0882 4.04834 14.9249 5.55972 13.2424C5.32126 12.6416 4.48592 10.1572 5.79867 6.83208C5.79867 6.83208 7.82679 6.19094 12.3998 9.31597C14.3576 8.78628 16.3767 8.51683 18.405 8.51456C20.4331 8.51456 22.5006 8.7953 24.4097 9.31597C28.9832 6.19094 31.0113 6.83208 31.0113 6.83208C32.3241 10.1572 31.4882 12.6416 31.2498 13.2424C32.801 14.9249 33.7155 17.0882 33.7155 19.7324C33.7155 29.0274 28.1085 31.0702 22.7395 31.6715C23.6147 32.4326 24.3699 33.8747 24.3699 36.1585C24.3699 39.4035 24.3306 42.0078 24.3306 42.8088C24.3306 43.4499 24.7681 44.2115 25.9609 43.9711C35.5051 40.7654 42.385 31.7114 42.385 21.0147C42.4244 7.633 31.6475 -3.18365 18.405 -3.18365Z" fill="white"/>
</g>
<defs>
<clipPath id="clip0_1_209">
<rect width="36.0467" height="39.1837" fill="white" transform="translate(0.385132 0.816345)"/>
</clipPath>
</defs>
</svg>
