<svg width="40" height="40" viewBox="0 0 40 40" fill="none" xmlns="http://www.w3.org/2000/svg">
<path fill-rule="evenodd" clip-rule="evenodd" d="M5.57179 13.7813C5 15.0245 5 16.4388 5 19.2675V28.1016C5 32.03 5 33.9942 6.22039 35.2145C7.44078 36.4349 9.40496 36.4349 13.3333 36.4349H13.375V26.0184C13.375 24.3155 14.7555 22.9351 16.4583 22.9351H22.7083C24.4112 22.9351 25.7917 24.3155 25.7917 26.0184V36.4349H25.8333C29.7617 36.4349 31.7259 36.4349 32.9463 35.2145C34.1667 33.9942 34.1667 32.03 34.1667 28.1016V19.2675C34.1667 16.4388 34.1667 15.0245 33.5949 13.7813C33.0231 12.538 31.9492 11.6176 29.8016 9.77674L27.7182 7.99103C23.8363 4.66368 21.8954 3 19.5833 3C17.2713 3 15.3304 4.66368 11.4484 7.99103L9.36511 9.77674C7.21743 11.6176 6.14359 12.538 5.57179 13.7813ZM23.7917 36.4349V26.0184C23.7917 25.4201 23.3066 24.9351 22.7083 24.9351H16.4583C15.86 24.9351 15.375 25.4201 15.375 26.0184V36.4349H23.7917Z" fill="white"/>
</svg>
