<svg width="31" height="31" viewBox="0 0 31 31" fill="none" xmlns="http://www.w3.org/2000/svg">
<path fill-rule="evenodd" clip-rule="evenodd" d="M30.5 15.2132C30.5 23.4281 23.7843 30.0876 15.5 30.0876C7.21573 30.0876 0.5 23.4281 0.5 15.2132C0.5 6.99833 7.21573 0.338844 15.5 0.338844C23.7843 0.338844 30.5 6.99833 30.5 15.2132ZM17.1667 8.60238C17.1667 9.51515 16.4205 10.2551 15.5 10.2551C14.5795 10.2551 13.8333 9.51515 13.8333 8.60238C13.8333 7.68962 14.5795 6.94968 15.5 6.94968C16.4205 6.94968 17.1667 7.68962 17.1667 8.60238ZM16.5 23.4768V13.5605H14.5V23.4768H16.5Z" fill="white"/>
</svg>
