<svg width="37" height="40" viewBox="0 0 37 40" fill="none" xmlns="http://www.w3.org/2000/svg">
<g clip-path="url(#clip0_1_208)">
<path d="M34.1955 0.816345H3.47834C2.0069 0.816345 0.817078 2.0791 0.817078 3.64033V37.1684C0.817078 38.7296 2.0069 40 3.47834 40H34.1955C35.6669 40 36.8638 38.7296 36.8638 37.176V3.64033C36.8638 2.0791 35.6669 0.816345 34.1955 0.816345ZM11.5114 34.2066H6.16072V15.5026H11.5114V34.2066ZM8.83606 12.9541C7.11821 12.9541 5.73125 11.4464 5.73125 9.58675C5.73125 7.72706 7.11821 6.21941 8.83606 6.21941C10.5469 6.21941 11.9338 7.72706 11.9338 9.58675C11.9338 11.4388 10.5469 12.9541 8.83606 12.9541ZM31.5342 34.2066H26.1906V25.1148C26.1906 22.949 26.1554 20.1556 23.4096 20.1556C20.6287 20.1556 20.2062 22.5204 20.2062 24.9618V34.2066H14.8697V15.5026H19.995V18.0587H20.0654C20.7765 16.5893 22.5225 15.0357 25.1204 15.0357C30.5345 15.0357 31.5342 18.9082 31.5342 23.9439V34.2066Z" fill="white"/>
</g>
<defs>
<clipPath id="clip0_1_208">
<rect width="36.0467" height="39.1837" fill="white" transform="translate(0.817078 0.816345)"/>
</clipPath>
</defs>
</svg>
