<svg width="40" height="40" viewBox="0 0 40 40" fill="none" xmlns="http://www.w3.org/2000/svg">
<circle cx="28.3333" cy="26.6667" r="4.83333" stroke="#FDFDFD" stroke-width="2"/>
<path d="M31.6667 30L35.0001 33.3333" stroke="#FDFDFD" stroke-width="2" stroke-linecap="round"/>
<path fill-rule="evenodd" clip-rule="evenodd" d="M3.33325 12.2C3.33325 9.67976 3.33325 8.41965 3.82372 7.45704C4.25515 6.61031 4.94357 5.9219 5.79029 5.49047C6.7529 5 8.01302 5 10.5333 5H29.4666C31.9868 5 33.2469 5 34.2095 5.49047C35.0563 5.9219 35.7447 6.61031 36.1761 7.45704C36.6666 8.41965 36.6666 9.67976 36.6666 12.2V22.8425C35.2172 19.6894 32.0309 17.5 28.3333 17.5C23.2706 17.5 19.1666 21.6041 19.1666 26.6667C19.1666 30.3643 21.356 33.5506 24.5091 35H6.53325C5.41315 35 4.85309 35 4.42527 34.782C4.04895 34.5903 3.74299 34.2843 3.55124 33.908C3.33325 33.4802 3.33325 32.9201 3.33325 31.8V12.2ZM32.2631 34.9506C33.0951 34.8938 33.6948 34.7718 34.2095 34.5095C35.0563 34.0781 35.7447 33.3897 36.1761 32.543C36.4384 32.0283 36.5604 31.4285 36.6172 30.5965C35.7117 32.5018 34.1683 34.0451 32.2631 34.9506ZM10.6666 16.6667C10.6666 16.1144 11.1143 15.6667 11.6666 15.6667H21.6666C22.2189 15.6667 22.6666 16.1144 22.6666 16.6667C22.6666 17.219 22.2189 17.6667 21.6666 17.6667H11.6666C11.1143 17.6667 10.6666 17.219 10.6666 16.6667ZM10.6666 23.3333C10.6666 22.781 11.1143 22.3333 11.6666 22.3333H16.6666C17.2189 22.3333 17.6666 22.781 17.6666 23.3333C17.6666 23.8856 17.2189 24.3333 16.6666 24.3333H11.6666C11.1143 24.3333 10.6666 23.8856 10.6666 23.3333Z" fill="#FDFDFD"/>
</svg>
