<svg width="42" height="36" viewBox="0 0 42 36" fill="none" xmlns="http://www.w3.org/2000/svg">
<path fill-rule="evenodd" clip-rule="evenodd" d="M1.61538 0.119873C0.72324 0.119873 0 0.99326 0 2.07062C0 3.14797 0.72324 4.02136 1.61538 4.02136H40.3846C41.2766 4.02136 42 3.14797 42 2.07062C42 0.99326 41.2766 0.119873 40.3846 0.119873H1.61538ZM0 17.6766C0 16.5992 0.72324 15.7258 1.61538 15.7258H40.3846C41.2766 15.7258 42 16.5992 42 17.6766C42 18.7539 41.2766 19.6273 40.3846 19.6273H1.61538C0.72324 19.6273 0 18.7539 0 17.6766ZM0 33.2825C0 32.2053 0.72324 31.3318 1.61538 31.3318H40.3846C41.2766 31.3318 42 32.2053 42 33.2825C42 34.3597 41.2766 35.2333 40.3846 35.2333H1.61538C0.72324 35.2333 0 34.3597 0 33.2825Z" fill="white"/>
</svg>
