<svg width="50" height="50" viewBox="0 0 40 40" fill="none" xmlns="http://www.w3.org/2000/svg">
<path fill-rule="evenodd" clip-rule="evenodd" d="M6.20577 9.5C5 11.5885 5 14.3923 5 20C5 25.6077 5 28.4115 6.20577 30.5C6.99569 31.8682 8.13183 33.0043 9.5 33.7942C11.5885 35 14.3923 35 20 35H29C31.8284 35 33.2426 35 34.1213 34.1213C35 33.2426 35 31.8284 35 29V20C35 14.3923 35 11.5885 33.7942 9.5C33.0043 8.13183 31.8682 6.99569 30.5 6.20577C28.4115 5 25.6077 5 20 5C14.3923 5 11.5885 5 9.5 6.20577C8.13183 6.99569 6.99569 8.13183 6.20577 9.5ZM14 18.3333C14 17.781 14.4477 17.3333 15 17.3333H25C25.5523 17.3333 26 17.781 26 18.3333C26 18.8856 25.5523 19.3333 25 19.3333H15C14.4477 19.3333 14 18.8856 14 18.3333ZM19 25C19 24.4477 19.4477 24 20 24H25C25.5523 24 26 24.4477 26 25C26 25.5523 25.5523 26 25 26H20C19.4477 26 19 25.5523 19 25Z" fill="white"/>
<path d="M39 16C40.6909 16 42.3372 15.4897 43.6284 14.5213C44.9206 13.5522 46 11.9844 46 10C46 8.01559 44.9206 6.44778 43.6284 5.47868C42.3372 4.51027 40.6909 4 39 4C37.3091 4 35.6628 4.51027 34.3716 5.47868C33.0794 6.44778 32 8.01559 32 10C32 11.9844 33.0794 13.5522 34.3716 14.5213C35.6628 15.4897 37.3091 16 39 16Z" stroke="#253555" stroke-width="6"/>
<circle cx="35.3333" cy="10.3333" r="3.83333" fill="#FF0000" stroke="white"/>
</svg>
