<svg width="40" height="40" viewBox="0 0 40 40" fill="none" xmlns="http://www.w3.org/2000/svg">
<path fill-rule="evenodd" clip-rule="evenodd" d="M6.20577 9.5C5 11.5885 5 14.3923 5 20C5 25.6077 5 28.4115 6.20577 30.5C6.99569 31.8682 8.13183 33.0043 9.5 33.7942C11.5885 35 14.3923 35 20 35H29C31.8284 35 33.2426 35 34.1213 34.1213C35 33.2426 35 31.8284 35 29V20C35 14.3923 35 11.5885 33.7942 9.5C33.0043 8.13183 31.8682 6.99569 30.5 6.20577C28.4115 5 25.6077 5 20 5C14.3923 5 11.5885 5 9.5 6.20577C8.13183 6.99569 6.99569 8.13183 6.20577 9.5ZM14 18.3333C14 17.781 14.4477 17.3333 15 17.3333H25C25.5523 17.3333 26 17.781 26 18.3333C26 18.8856 25.5523 19.3333 25 19.3333H15C14.4477 19.3333 14 18.8856 14 18.3333ZM19 25C19 24.4477 19.4477 24 20 24H25C25.5523 24 26 24.4477 26 25C26 25.5523 25.5523 26 25 26H20C19.4477 26 19 25.5523 19 25Z" fill="white"/>
</svg>
