<svg width="40" height="40" viewBox="0 0 40 40" fill="none" xmlns="http://www.w3.org/2000/svg">
<path fill-rule="evenodd" clip-rule="evenodd" d="M25.0763 6.01639C24.1833 5.51699 23.186 5.18432 22.1277 5.05715C21.6521 5 21.1015 5 20.0002 5C18.8989 5 18.3482 5 17.8727 5.05715C14.5358 5.45814 11.8053 7.90201 11.0383 11.1742C10.929 11.6405 10.8682 12.1878 10.7466 13.2824L10.3269 17.0594C10.1936 18.2592 10.1269 18.8591 9.97321 19.4371C9.88322 19.7755 9.77111 20.1077 9.6376 20.4314C9.40956 20.9843 9.09901 21.5019 8.47791 22.5371L6.81755 25.3043C6.01179 26.6473 5.60892 27.3187 5.89614 27.826C6.18337 28.3333 6.96643 28.3333 8.53254 28.3333H31.4678C33.0339 28.3333 33.8169 28.3333 34.1042 27.826C34.3914 27.3187 33.9885 26.6473 33.1828 25.3043L31.5224 22.5371L31.5224 22.537C30.9013 21.5019 30.5907 20.9843 30.3627 20.4314C30.2292 20.1077 30.1171 19.7755 30.0271 19.4371C29.8734 18.8591 29.8067 18.2592 29.6734 17.0594L29.5913 16.3203C26.284 16.1096 23.6668 13.3605 23.6668 10C23.6668 8.49059 24.1949 7.1045 25.0763 6.01639ZM27.3747 7.94594C26.9312 8.51201 26.6668 9.22513 26.6668 10C26.6668 11.583 27.7703 12.9083 29.25 13.2486C29.1309 12.1765 29.0702 11.6357 28.962 11.1742C28.6784 9.96443 28.1265 8.86789 27.3747 7.94594Z" fill="white"/>
<path d="M15 28.3333C15 28.9899 15.1293 29.6401 15.3806 30.2467C15.6319 30.8534 16.0002 31.4046 16.4645 31.8689C16.9288 32.3332 17.48 32.7015 18.0866 32.9527C18.6932 33.204 19.3434 33.3333 20 33.3333C20.6566 33.3333 21.3068 33.204 21.9134 32.9527C22.52 32.7015 23.0712 32.3332 23.5355 31.8689C23.9998 31.4046 24.3681 30.8534 24.6194 30.2467C24.8707 29.6401 25 28.9899 25 28.3333L20 28.3333H15Z" fill="white"/>
<circle cx="29.9998" cy="10" r="3.83333" fill="#FF0000" stroke="white"/>
</svg>
