<svg width="40" height="40" viewBox="0 0 40 40" fill="none" xmlns="http://www.w3.org/2000/svg">
<path d="M10.8374 11.6253C10.9395 10.6049 10.9905 10.0947 11.0836 9.65972C11.8039 6.29276 14.5977 3.76437 18.0196 3.38266C18.4617 3.33334 18.9745 3.33334 20 3.33334C21.0255 3.33334 21.5382 3.33334 21.9803 3.38266C25.4022 3.76437 28.1961 6.29276 28.9164 9.65972C29.0094 10.0947 29.0605 10.6049 29.1625 11.6253L29.6402 16.4022C29.8008 18.0078 29.881 18.8106 30.1156 19.5731C30.1868 19.8045 30.2684 20.0325 30.3603 20.2565C30.663 20.9946 31.1106 21.6659 32.0056 23.0085L34.5937 26.8906C35.5062 28.2594 35.9625 28.9437 35.6798 29.4719C35.3972 30 34.5746 30 32.9296 30H7.07035C5.42532 30 4.60281 30 4.32016 29.4719C4.0375 28.9437 4.49375 28.2594 5.40625 26.8906L7.99433 23.0085C8.88939 21.6659 9.33692 20.9946 9.63964 20.2565C9.73151 20.0325 9.81316 19.8045 9.88435 19.5731C10.1189 18.8106 10.1992 18.0078 10.3598 16.4022L10.8374 11.6253Z" fill="white"/>
<path d="M16.7802 34.3823C16.9701 34.5595 17.3886 34.7161 17.9708 34.8278C18.5529 34.9395 19.2662 35 20 35C20.7338 35 21.447 34.9395 22.0292 34.8278C22.6113 34.7161 23.0298 34.5595 23.2197 34.3823" stroke="white" stroke-width="2" stroke-linecap="round"/>
</svg>
