<svg width="40" height="40" viewBox="0 0 40 40" fill="none" xmlns="http://www.w3.org/2000/svg">
<path fill-rule="evenodd" clip-rule="evenodd" d="M35 20C35 28.2843 28.2843 35 20 35C11.7157 35 5 28.2843 5 20C5 11.7157 11.7157 5 20 5C28.2843 5 35 11.7157 35 20ZM21.6667 30C21.6667 30.9205 20.9205 31.6667 20 31.6667C19.0795 31.6667 18.3333 30.9205 18.3333 30C18.3333 29.0795 19.0795 28.3333 20 28.3333C20.9205 28.3333 21.6667 29.0795 21.6667 30ZM20 9C16.6863 9 14 11.6863 14 15H16C16 12.7909 17.7909 11 20 11H20.1572C22.2795 11 24 12.7205 24 14.8428V15.6981C24 16.8414 23.2684 17.8564 22.1838 18.218C20.2825 18.8518 19 20.6311 19 22.6352V26.6667H21V22.6352C21 21.4919 21.7316 20.4769 22.8162 20.1153C24.7175 19.4816 26 17.7023 26 15.6981V14.8428C26 11.6159 23.3841 9 20.1572 9H20Z" fill="#FFFEFE"/>
</svg>
