<svg width="28" height="26" viewBox="0 0 28 26" fill="none" xmlns="http://www.w3.org/2000/svg">
<path fill="yellow" d="M11.5354 5.11292C12.6626 2.41655 13.2261 1.06836 14.1953 1.06836C15.1644 1.06836 15.728 2.41655 16.8551 5.11292L16.9076 5.23848C17.5444 6.7618 17.8628 7.52346 18.5117 7.9864C19.1606 8.44935 20.0124 8.52255 21.716 8.66896L22.024 8.69543C24.8122 8.93504 26.2063 9.05484 26.5046 9.90595C26.8029 10.757 25.7676 11.6609 23.697 13.4686L23.0059 14.0719C21.9577 14.987 21.4336 15.4445 21.1893 16.0442C21.1438 16.1561 21.1059 16.2707 21.0759 16.3873C20.9154 17.0125 21.0688 17.6762 21.3758 19.0037L21.4713 19.4169C22.0354 21.8567 22.3175 23.0765 21.825 23.6027C21.641 23.7993 21.4018 23.9409 21.1361 24.0104C20.4251 24.1966 19.4157 23.4073 17.3967 21.8286C16.071 20.7921 15.4082 20.2738 14.6471 20.1572C14.3478 20.1113 14.0428 20.1113 13.7434 20.1572C12.9824 20.2738 12.3195 20.7921 10.9938 21.8286C8.9749 23.4073 7.96544 24.1966 7.25442 24.0104C6.98873 23.9409 6.74956 23.7993 6.56553 23.6027C6.07307 23.0765 6.35512 21.8567 6.91923 19.4169L7.01477 19.0037C7.32171 17.6762 7.47519 17.0125 7.31462 16.3873C7.28467 16.2707 7.24679 16.1561 7.20122 16.0442C6.95694 15.4445 6.43284 14.987 5.38465 14.0719L4.69358 13.4686C2.62293 11.6609 1.58761 10.757 1.88592 9.90595C2.18422 9.05484 3.57833 8.93504 6.36654 8.69543L6.67453 8.66896C8.37815 8.52255 9.22997 8.44935 9.87887 7.9864C10.5278 7.52346 10.8462 6.7618 11.4829 5.23848L11.5354 5.11292Z" stroke="yellow" stroke-width="2"/>
</svg>
