<svg width="28" height="28" viewBox="0 0 28 28" fill="none" xmlns="http://www.w3.org/2000/svg">
<path d="M4.6665 9.33332L3.9594 10.0404L3.25229 9.33332L3.9594 8.62622L4.6665 9.33332ZM10.4998 23.1667C9.94755 23.1667 9.49984 22.7189 9.49984 22.1667C9.49984 21.6144 9.94755 21.1667 10.4998 21.1667L10.4998 23.1667ZM9.79273 15.8738L3.9594 10.0404L5.37361 8.62622L11.2069 14.4595L9.79273 15.8738ZM3.9594 8.62622L9.79273 2.79288L11.2069 4.2071L5.37361 10.0404L3.9594 8.62622ZM4.6665 8.33332L16.9165 8.33332L16.9165 10.3333L4.6665 10.3333L4.6665 8.33332ZM16.9165 23.1667L10.4998 23.1667L10.4998 21.1667L16.9165 21.1667L16.9165 23.1667ZM24.3332 15.75C24.3332 19.8461 21.0126 23.1667 16.9165 23.1667L16.9165 21.1667C19.908 21.1667 22.3332 18.7415 22.3332 15.75L24.3332 15.75ZM16.9165 8.33332C21.0126 8.33332 24.3332 11.6539 24.3332 15.75L22.3332 15.75C22.3332 12.7584 19.908 10.3333 16.9165 10.3333L16.9165 8.33332Z" fill="white"/>
</svg>
