<svg width="40" height="40" viewBox="0 0 40 40" fill="none" xmlns="http://www.w3.org/2000/svg">
<path fill-rule="evenodd" clip-rule="evenodd" d="M5 11C5 8.17157 5 6.75736 5.87868 5.87868C6.75736 5 8.17157 5 11 5H26.6765C27.494 5 27.9027 5 28.2703 5.15224C28.6378 5.30448 28.9268 5.59351 29.5049 6.17157L33.8284 10.4951C34.4065 11.0732 34.6955 11.3622 34.8478 11.7297C35 12.0973 35 12.506 35 13.3235V29C35 31.8284 35 33.2426 34.1213 34.1213C33.2426 35 31.8284 35 29 35H27.6667V28L27.6667 27.9384C27.6667 27.2843 27.6668 26.6966 27.6028 26.2208C27.533 25.7015 27.3709 25.1687 26.9344 24.7322C26.498 24.2958 25.9652 24.1337 25.4458 24.0638C24.9701 23.9999 24.3824 23.9999 23.7283 24L23.6667 24H14.6667L14.6051 24C13.9509 23.9999 13.3632 23.9999 12.8875 24.0638C12.3682 24.1337 11.8353 24.2958 11.3989 24.7322C10.9625 25.1687 10.8003 25.7015 10.7305 26.2208C10.6665 26.6966 10.6666 27.2843 10.6667 27.9384L10.6667 28V34.9999C8.05907 34.9986 6.72214 34.9648 5.87868 34.1213C5 33.2426 5 31.8284 5 29V11ZM25.6667 28V35H12.6667V28C12.6667 27.2646 12.6688 26.8137 12.7127 26.4873C12.7512 26.2005 12.8061 26.1526 12.8126 26.1469L12.8131 26.1464L12.8136 26.1459C12.8193 26.1394 12.8672 26.0846 13.154 26.046C13.4804 26.0021 13.9313 26 14.6667 26H23.6667C24.402 26 24.853 26.0021 25.1793 26.046C25.4662 26.0846 25.5141 26.1394 25.5197 26.1459L25.5202 26.1464L25.5207 26.1469C25.5273 26.1526 25.5821 26.2005 25.6207 26.4873C25.6645 26.8137 25.6667 27.2646 25.6667 28ZM11.6667 12.3333C11.1144 12.3333 10.6667 12.781 10.6667 13.3333C10.6667 13.8856 11.1144 14.3333 11.6667 14.3333H20C20.5523 14.3333 21 13.8856 21 13.3333C21 12.781 20.5523 12.3333 20 12.3333H11.6667Z" fill="#FFFEFE"/>
</svg>
