<svg width="27" height="25" viewBox="0 0 32 30" fill="none" xmlns="http://www.w3.org/2000/svg">
<path d="M30.2359 8.7836C31.0332 7.82654 30.8856 6.41391 29.9181 5.63645C28.9612 4.86751 27.5527 5.00233 26.7644 5.94866L16.9193 17.7667L12.3988 14.2149C11.4337 13.4566 10.0267 13.6062 9.24872 14.5614C8.46191 15.5274 8.62571 16.9382 9.60145 17.7049L14.886 21.857C16.3787 23.0298 18.5527 22.808 19.7688 21.3483L30.2359 8.7836Z" stroke="white" stroke-width="2" stroke-linecap="round"/>
<mask id="path-2-outside-1_1_276" maskUnits="userSpaceOnUse" x="-0.500061" y="4.36604" width="24" height="20" fill="black">
<rect fill="white" x="-0.500061" y="4.36604" width="24" height="20"/>
<path fill-rule="evenodd" clip-rule="evenodd" d="M15.0615 14.5565L20.5183 8.00613C20.8718 7.58179 20.8144 6.95124 20.3901 6.59774C19.9657 6.24425 19.3352 6.30167 18.9817 6.72601L13.5137 13.2898L15.0615 14.5565ZM10.5809 19.935L9.03311 18.6682L8.33462 19.5067L4.09308 16.3824C3.64841 16.0548 3.02241 16.1498 2.69486 16.5944C2.36731 17.0391 2.46226 17.6651 2.90693 17.9926L7.14847 21.117C8.00049 21.7446 9.19395 21.5999 9.87127 20.7868L10.5809 19.935Z"/>
</mask>
<path d="M20.5183 8.00613L22.055 9.28625V9.28625L20.5183 8.00613ZM15.0615 14.5565L13.7947 16.1042L15.3291 17.36L16.5981 15.8367L15.0615 14.5565ZM20.3901 6.59774L19.1099 8.13439L19.1099 8.1344L20.3901 6.59774ZM18.9817 6.72601L20.5183 8.00613V8.00613L18.9817 6.72601ZM13.5137 13.2898L11.977 12.0096L10.6858 13.5597L12.247 14.8375L13.5137 13.2898ZM10.5809 19.935L12.1175 21.2151L13.4088 19.6651L11.8476 18.3873L10.5809 19.935ZM9.03311 18.6682L10.2998 17.1205L8.76551 15.8648L7.49646 17.3881L9.03311 18.6682ZM8.33462 19.5067L7.14847 21.117L8.66539 22.2344L9.87127 20.7868L8.33462 19.5067ZM4.09308 16.3824L2.90693 17.9926H2.90693L4.09308 16.3824ZM2.69486 16.5944L4.30515 17.7806L2.69486 16.5944ZM2.90693 17.9926L1.72077 19.6029H1.72077L2.90693 17.9926ZM7.14847 21.117L8.33463 19.5067L8.33462 19.5067L7.14847 21.117ZM9.87127 20.7868L8.33462 19.5067L9.87127 20.7868ZM18.9817 6.72601L13.5248 13.2764L16.5981 15.8367L22.055 9.28625L18.9817 6.72601ZM19.1099 8.1344C18.6856 7.7809 18.6282 7.15034 18.9817 6.72601L22.055 9.28625C23.1155 8.01324 22.9432 6.12158 21.6702 5.06109L19.1099 8.1344ZM20.5183 8.00613C20.1648 8.43046 19.5343 8.48789 19.1099 8.13439L21.6702 5.06109C20.3972 4.00061 18.5055 4.17289 17.445 5.44589L20.5183 8.00613ZM15.0503 14.5699L20.5183 8.00613L17.445 5.44589L11.977 12.0096L15.0503 14.5699ZM12.247 14.8375L13.7947 16.1042L16.3282 13.0088L14.7804 11.742L12.247 14.8375ZM11.8476 18.3873L10.2998 17.1205L7.76639 20.2159L9.31415 21.4827L11.8476 18.3873ZM9.87127 20.7868L10.5698 19.9484L7.49646 17.3881L6.79797 18.2266L9.87127 20.7868ZM2.90693 17.9926L7.14847 21.117L9.52078 17.8964L5.27923 14.7721L2.90693 17.9926ZM4.30515 17.7806C3.9776 18.2252 3.3516 18.3202 2.90693 17.9926L5.27923 14.7721C3.94523 13.7894 2.06721 14.0743 1.08457 15.4083L4.30515 17.7806ZM4.09308 16.3824C4.53775 16.7099 4.6327 17.3359 4.30515 17.7806L1.08457 15.4083C0.101928 16.7423 0.386761 18.6203 1.72077 19.6029L4.09308 16.3824ZM8.33462 19.5067L4.09308 16.3824L1.72077 19.6029L5.96232 22.7273L8.33462 19.5067ZM8.33462 19.5067L8.33463 19.5067L5.96232 22.7273C7.66637 23.9825 10.0533 23.6931 11.4079 22.0669L8.33462 19.5067ZM9.04423 18.6549L8.33462 19.5067L11.4079 22.0669L12.1175 21.2151L9.04423 18.6549Z" fill="white" mask="url(#path-2-outside-1_1_276)"/>
</svg>
