<svg width="40" height="40" viewBox="0 0 40 40" fill="none" xmlns="http://www.w3.org/2000/svg">
<path fill-rule="evenodd" clip-rule="evenodd" d="M17.2727 21.3131L9.02543 18.564C6.67222 17.7796 5.49561 17.3874 5.49561 16.6667C5.49561 15.9459 6.67222 15.5537 9.02543 14.7693L29.5386 7.93157C31.1944 7.37964 32.0223 7.10368 32.4593 7.54069C32.8963 7.97771 32.6204 8.8056 32.0684 10.4614L25.2307 30.9746C24.4463 33.3278 24.0541 34.5044 23.3333 34.5044C22.6126 34.5044 22.2204 33.3278 21.436 30.9746L18.6869 22.7273L25.7071 15.7071C26.0976 15.3166 26.0976 14.6834 25.7071 14.2929C25.3166 13.9024 24.6834 13.9024 24.2929 14.2929L17.2727 21.3131Z" fill="white"/>
</svg>
