<svg width="18" height="18" viewBox="0 0 18 18" fill="none" xmlns="http://www.w3.org/2000/svg">
<path d="M7.30749 4.21999C7.94956 2.6193 8.2706 1.81896 8.79218 1.70803C8.92932 1.67887 9.07107 1.67887 9.20821 1.70803C9.72979 1.81896 10.0508 2.6193 10.6929 4.21999C11.058 5.13027 11.2406 5.58541 11.5822 5.89497C11.678 5.9818 11.782 6.05913 11.8928 6.12588C12.2876 6.36386 12.7805 6.408 13.7663 6.49629C15.4351 6.64574 16.2695 6.72046 16.5243 7.19621C16.577 7.29474 16.6129 7.40142 16.6304 7.51181C16.7149 8.04484 16.1015 8.6029 14.8747 9.71902L14.534 10.029C13.9605 10.5508 13.6737 10.8117 13.5078 11.1373C13.4083 11.3326 13.3416 11.5429 13.3104 11.7599C13.2582 12.1216 13.3422 12.5001 13.5102 13.2571L13.5702 13.5275C13.8714 14.8851 14.022 15.5638 13.834 15.8975C13.6651 16.1972 13.3541 16.389 13.0105 16.4054C12.6279 16.4237 12.089 15.9845 11.011 15.1061C10.3008 14.5274 9.94567 14.238 9.55146 14.125C9.19121 14.0217 8.80918 14.0217 8.44894 14.125C8.05473 14.238 7.69962 14.5274 6.98941 15.1061C5.91144 15.9845 5.37245 16.4237 4.98993 16.4054C4.64633 16.389 4.33528 16.1972 4.16642 15.8975C3.97842 15.5638 4.12902 14.8851 4.43022 13.5275L4.49023 13.2571C4.65818 12.5001 4.74216 12.1216 4.69004 11.7599C4.65878 11.5429 4.59207 11.3326 4.49257 11.1373C4.32669 10.8117 4.03992 10.5508 3.46637 10.029L3.1257 9.71902C1.89891 8.6029 1.28552 8.04484 1.36999 7.51181C1.38749 7.40142 1.42337 7.29474 1.47614 7.19621C1.73094 6.72046 2.56532 6.64574 4.23408 6.49629C5.21986 6.408 5.71276 6.36386 6.1076 6.12588C6.21834 6.05913 6.32236 5.9818 6.41818 5.89497C6.75979 5.58541 6.94236 5.13027 7.30749 4.21999Z" fill="white" stroke="white" stroke-width="2"/>
</svg>
