<svg width="37" height="40" viewBox="0 0 37 40" fill="none" xmlns="http://www.w3.org/2000/svg">
<path d="M0.953247 39.1837L3.48703 29.1216C1.9235 26.1763 1.10194 22.8376 1.10344 19.4139C1.10795 8.7102 9.12082 0 18.9661 0C23.7438 0.00163265 28.2286 2.02449 31.6019 5.69469C34.9738 9.3649 36.8302 14.2433 36.8287 19.4318C36.8242 30.1371 28.8113 38.8474 18.9661 38.8474C15.9772 38.8457 13.0319 38.031 10.423 36.4833L0.953247 39.1837ZM10.8616 32.9682C13.3788 34.5927 15.7819 35.5657 18.9601 35.5673C27.1427 35.5673 33.8083 28.3282 33.8128 19.4286C33.8158 10.511 27.1817 3.28163 18.9721 3.27837C10.7835 3.27837 4.12235 10.5176 4.11935 19.4155C4.11785 23.0482 5.09711 25.7682 6.74174 28.6139L5.2413 34.5698L10.8616 32.9682ZM27.9642 24.0473C27.8531 23.8449 27.5557 23.7241 27.1081 23.4808C26.662 23.2376 24.4677 22.0637 24.0577 21.902C23.6491 21.7404 23.3518 21.6588 23.0529 22.1453C22.7555 22.6302 21.8994 23.7241 21.6395 24.0473C21.3797 24.3706 21.1184 24.4114 20.6723 24.1682C20.2262 23.9249 18.7873 23.4139 17.0826 21.76C15.7564 20.4735 14.8598 18.8849 14.5999 18.3984C14.3401 17.9135 14.5729 17.6506 14.7952 17.409C14.9964 17.1918 15.2412 16.8424 15.465 16.5584C15.6918 16.2776 15.7654 16.0751 15.9156 15.7502C16.0643 15.4269 15.9907 15.1429 15.8781 14.8996C15.7654 14.658 14.8733 12.2694 14.5023 11.298C14.1388 10.3527 13.7708 10.48 13.4975 10.4653L12.6414 10.449C12.344 10.449 11.8604 10.5698 11.4518 11.0563C11.0433 11.5429 9.88982 12.7151 9.88982 15.1037C9.88982 17.4922 11.4894 19.7992 11.7117 20.1224C11.9355 20.4457 14.8583 25.3469 19.3356 27.4482C20.4004 27.9478 21.2325 28.2465 21.8798 28.4702C22.9492 28.8392 23.9225 28.7869 24.6915 28.6629C25.5491 28.5241 27.3319 27.489 27.7044 26.3559C28.0769 25.2212 28.0769 24.2498 27.9642 24.0473Z" fill="white"/>
</svg>
